<?xml version="1.0" encoding="UTF-8" standalone="no"?><!DOCTYPE svg PUBLIC "-//W3C//DTD SVG 1.1//EN" "http://www.w3.org/Graphics/SVG/1.1/DTD/svg11.dtd"><svg width="100%" height="100%" viewBox="0 0 556 523" version="1.1" xmlns="http://www.w3.org/2000/svg" xmlns:xlink="http://www.w3.org/1999/xlink" xml:space="preserve" style="fill-rule:evenodd;clip-rule:evenodd;stroke-miterlimit:10;"><rect id="ico_man" x="437.822" y="345.728" width="50" height="50" style="fill:none;"/><clipPath id="_clip1"><rect x="437.822" y="345.728" width="50" height="50"/></clipPath><g clip-path="url(#_clip1)"><clipPath id="_clip2"><rect id="noun_98312_cc" x="436.622" y="331.728" width="51.2" height="64"/></clipPath><g clip-path="url(#_clip2)"><circle cx="462.426" cy="350.109" r="4.045" style="fill:#fff;"/><path d="M471.438,372.688l0,-12.442c0,-2.918 -1.792,-5.273 -4.66,-5.273l-9.062,0c-3.174,0 -4.71,2.662 -4.71,5.325l0,12.39c0,2.458 3.174,2.458 3.174,0l0,-12.083l0.973,0l0,32.87c0,1.229 1.024,2.253 2.253,2.253c1.28,0 2.252,-1.024 2.252,-2.253l0,-19.046l1.024,0l0,19.046c0,1.229 1.024,2.253 2.253,2.253c1.28,0 2.253,-1.024 2.253,-2.253l0,-32.87l1.024,0l0,12.083c0,2.458 3.226,2.458 3.226,0Z" style="fill:#fff;fill-rule:nonzero;"/></g></g><rect id="ico_all" x="437.822" y="103.178" width="50" height="50" style="fill:none;"/><g><path d="M481.639,125.771c-1.326,0 -2.418,1.092 -2.418,2.418l0,15.11c0,1.326 -1.091,2.418 -2.417,2.418l-21.154,0c-1.096,-0.004 -2.059,-0.752 -2.333,-1.814l16.234,0c3.979,0 7.253,-3.274 7.253,-7.252l0,-15.11c0,-1.327 -1.091,-2.418 -2.418,-2.418c-1.326,0 -2.417,1.091 -2.417,2.418l0,15.11c0,1.326 -1.092,2.417 -2.418,2.417l-21.154,0c-1.326,0 -2.418,-1.091 -2.418,-2.417l0,-21.154c0,-1.327 1.092,-2.418 2.418,-2.418l15.11,0c1.326,0 2.418,-1.091 2.418,-2.418c0,-1.326 -1.092,-2.417 -2.418,-2.417l-15.11,0c-3.979,0 -7.253,3.274 -7.253,7.253l0,21.154c0,3.978 3.274,7.252 7.253,7.252l0.03,0c0.313,3.737 3.473,6.646 7.223,6.649l21.154,0c3.979,0 7.253,-3.274 7.253,-7.253l0,-15.11c0,-1.326 -1.092,-2.418 -2.418,-2.418Z" style="fill:#fff;fill-rule:nonzero;"/><path d="M452.102,119.764c-0.451,-0.44 -1.057,-0.686 -1.687,-0.686c-1.327,0 -2.418,1.091 -2.418,2.417c0,0.698 0.303,1.364 0.829,1.823l7.211,6.648c0.446,0.411 1.031,0.64 1.638,0.641l0.09,0c0.643,-0.03 1.248,-0.315 1.68,-0.792l15.576,-17.123c0.361,-0.434 0.56,-0.982 0.56,-1.547c0,-1.326 -1.092,-2.417 -2.418,-2.417c-0.649,0 -1.272,0.261 -1.726,0.725l-13.901,15.321l-5.434,-5.01Z" style="fill:#fff;fill-rule:nonzero;"/></g><rect id="ico_house" x="281.872" y="188.625" width="50" height="50" style="fill:none;"/><path d="M329.906,215.796l-2.49,2.49c-0.466,0.467 -1.222,0.467 -1.688,0l-18.856,-18.855l-18.855,18.855c-0.466,0.467 -1.222,0.467 -1.688,0l-2.491,-2.49c-0.466,-0.466 -0.466,-1.222 0,-1.688l22.19,-22.19c0.466,-0.466 1.222,-0.466 1.688,0l22.19,22.19c0.466,0.466 0.466,1.222 0,1.688Zm-23.034,-13.977l16.715,16.715l0,17.311c0,0.66 -0.534,1.194 -1.194,1.194l-15.521,0c-0.659,0 -1.194,-0.534 -1.194,-1.194l0,-12.536c0,-0.329 -0.267,-0.597 -0.597,-0.597l-8.357,0c-0.329,0 -0.597,0.268 -0.597,0.597l0,12.536c0,0.66 -0.534,1.194 -1.194,1.194l-3.582,0c-0.659,0 -1.193,-0.534 -1.193,-1.194l0,-17.311l16.714,-16.715Zm3.582,27.46c0,0.329 0.267,0.597 0.597,0.597l5.969,0c0.33,0 0.597,-0.268 0.597,-0.597l0,-5.97c0,-0.329 -0.267,-0.597 -0.597,-0.597l-5.969,0c-0.33,0 -0.597,0.268 -0.597,0.597l0,5.97Z" style="fill:#fff;fill-rule:nonzero;"/><rect id="ico_flat" x="281.872" y="278.549" width="50" height="50" style="fill:none;"/><path d="M327.147,311.554l-4.492,-10.714l0,-8.986c0,-1.612 -1.268,-2.88 -2.88,-2.88l-25.805,0c-1.613,0 -2.88,1.268 -2.88,2.88l0,8.986l-4.493,10.714c-0.058,0.115 -0.115,0.288 -0.115,0.46l0,13.94l2.304,0l0,-5.876l36.115,0l0,5.876l2.304,0l0,-6.567l-0.058,0c0.058,-0.115 0.058,-0.288 0.058,-0.461l0,-6.912c0.058,-0.172 0,-0.288 -0.058,-0.46Zm-19.123,-14.112l6.509,0l0,6.163l-6.509,0l0,-6.163Zm-8.813,0l6.509,0l0,6.163l-6.509,0l0,-6.163Zm-9.849,13.42l3.398,-8.064l4.147,0l0,1.901c0,0.634 0.519,1.152 1.152,1.152l17.626,0c0.634,0 1.152,-0.518 1.152,-1.152l0,-1.901l4.147,0l3.399,8.064l-35.021,0Z" style="fill:#fff;fill-rule:nonzero;"/><rect id="ico_building" x="277.025" y="473.549" width="50" height="50" style="fill:none;"/><path d="M318.749,483.357c0,-2.44 0.488,-4.392 -1.952,-4.392c0,0 -30.241,0 -30.256,0c0,0 0,0 0,0c-2.44,0 -1.952,1.952 -1.952,4.392l0,33.916l-4.636,0l0,2.928l42.944,0l0,-2.928l-4.148,0l0,-33.916Zm-27.182,3.611c0,-1.464 1.171,-2.635 2.635,-2.635l3.075,0c1.464,0 2.635,1.171 2.635,2.635l0,3.074c0,1.464 -1.171,2.636 -2.635,2.636l-3.075,0c-1.464,0 -2.635,-1.172 -2.635,-2.636l0,-3.074l0,0Zm0.488,14.25l0,-3.075c0,-1.464 1.171,-2.635 2.635,-2.635l3.075,0c1.464,0 2.635,1.171 2.635,2.635l0,3.075c0,1.464 -1.171,2.635 -2.635,2.635l-3.075,0c-1.464,0 -2.635,-1.171 -2.635,-2.635Zm16.202,16.055l-13.176,0l0,-7.564c0,-0.83 0.634,-1.464 1.464,-1.464l10.248,0c0.829,0 1.464,0.634 1.464,1.464l0,7.564Zm2.83,-16.055c0,1.464 -1.171,2.635 -2.635,2.635l-3.123,0c-1.464,0 -2.636,-1.171 -2.636,-2.635l0,-3.075c0,-1.464 1.172,-2.635 2.636,-2.635l3.074,0c1.464,0 2.635,1.171 2.635,2.635l0,3.075l0.049,0Zm0.488,-11.127c0,1.464 -1.171,2.635 -2.635,2.635l-3.123,0c-1.464,0 -2.636,-1.171 -2.636,-2.635l0,-3.074c0,-1.464 1.172,-2.635 2.636,-2.635l3.074,0c1.464,0 2.635,1.171 2.635,2.635l0,3.074l0.049,0Z" style="fill:#fff;fill-rule:nonzero;"/><rect id="ico_price" x="0" y="413.993" width="50" height="50" style="fill:none;"/><path d="M45.881,418.676l-20.232,0.358l-23.53,23.546l19.858,19.841l23.53,-23.53l0.374,-20.215Zm-8.824,5.704c0.798,0 1.584,0.301 2.194,0.91c1.218,1.219 1.218,3.202 0,4.42c-1.219,1.218 -3.186,1.218 -4.404,0c-1.219,-1.218 -1.219,-3.202 0,-4.42c0.609,-0.609 1.411,-0.91 2.21,-0.91Zm-12.951,7.361c0.574,0 1.04,0.466 1.04,1.04l0,0.748c1.361,0.389 2.353,1.433 2.876,2.486c0.303,0.49 0.106,1.221 -0.406,1.479c-0.513,0.258 -1.223,-0.015 -1.43,-0.553c-0.374,-0.752 -1.197,-1.495 -2.178,-1.495c-1.264,0 -2.064,0.69 -2.064,2.08c0.009,1.115 1.282,1.667 2.503,2.178c0.687,0.328 1.516,0.584 2.291,1.154c0.775,0.569 1.398,1.604 1.398,2.908c0,1.967 -1.293,3.512 -2.99,3.998l0,0.617c0,0.575 -0.466,1.04 -1.04,1.04c-0.574,0 -1.04,-0.465 -1.04,-1.04l0,-0.568c-1.465,-0.344 -2.54,-1.448 -3.088,-2.552c-0.303,-0.489 -0.09,-1.22 0.423,-1.478c0.512,-0.258 1.222,0.014 1.43,0.552c0.373,0.752 1.196,1.511 2.177,1.511c1.265,0 2.064,-0.689 2.064,-2.08c-0.009,-1.129 -1.275,-1.681 -2.503,-2.193c-0.686,-0.328 -1.516,-0.585 -2.291,-1.154c-0.775,-0.57 -1.414,-1.589 -1.414,-2.893c0,-2.043 1.406,-3.628 3.202,-4.046l0,-0.699c0,-0.574 0.466,-1.04 1.04,-1.04Z" style="fill:#fff;fill-rule:nonzero;"/><rect id="ico_lifestyle" x="79.846" y="413.993" width="50" height="50" style="fill:none;"/><clipPath id="_clip3"><rect x="79.846" y="413.993" width="50" height="50"/></clipPath><g clip-path="url(#_clip3)"><clipPath id="_clip4"><rect id="noun_10148" x="79.846" y="414.549" width="49.445" height="49.445"/></clipPath><g clip-path="url(#_clip4)"><g><rect x="-15.088" y="414.549" width="91.472" height="48.95"/><rect x="79.846" y="396.749" width="49.445" height="14.833"/><text x="112.479px" y="404.907px" style="font-family:'HelveticaCE', 'Helvetica', fantasy;font-size:1.187px;">http://thenounproject.com</text><g><text x="83.389px" y="402.435px" style="font-family:'ArialMT', 'Arial', sans-serif;font-size:3.045px;">The Noun Project</text><text x="83.943px" y="404.808px" style="font-family:'ArialMT', 'Arial', sans-serif;font-size:1.978px;">Icon T<tspan x="89.184px 90.284px " y="404.808px 404.808px ">em</tspan>plate</text></g><text x="-8.413px" y="419.741px" style="font-family:'ArialMT', 'Arial', sans-serif;font-size:3.045px;">Reminders</text><path d="M83.802,407.379l4.944,0" style="fill-rule:nonzero;stroke:#fff;stroke-width:0.49px;"/><path d="M-8.66,422.707l8.406,0" style="fill-rule:nonzero;stroke:#fff;stroke-width:0.49px;"/><g><rect x="-4.606" y="430.034" width="4.312" height="4.273"/><path d="M-1.468,435.47l2.347,0l0,-2.326l-2.347,0l0,2.326Zm2.566,0.216l-2.784,0l0,-2.759l2.784,0l0,2.759Zm-3.439,0.649l4.093,0l0,-4.056l-4.093,0l0,4.056Zm4.312,0.217l-4.531,0l0,-4.489l4.531,0l0,4.489Z" style="fill-rule:nonzero;"/><path d="M-2.306,436.37l-0.07,-0.07l4.093,-4.056l0.07,0.07l-4.093,4.056Z" style="fill-rule:nonzero;"/></g><rect x="-8.66" y="443.227" width="17.306" height="16.069" style="fill:none;"/><g><text x="-8.66px" y="446.766px" style="font-family:'HelveticaCE', 'Helvetica', fantasy;font-size:1.187px;">T<tspan x="-8.077px " y="446.766px ">r</tspan>y to keep strokes at 4px</text><text x="-8.66px" y="449.238px" style="font-family:'HelveticaCE', 'Helvetica', fantasy;font-size:1.187px;">Minimum stroke weight is 2px</text><text x="-8.66px" y="451.463px" style="font-family:'HelveticaCE', 'Helvetica', fantasy;font-size:1.187px;">For thicker strok<tspan x="-0.261px " y="451.463px ">e</tspan>s use even</text><text x="-8.66px" y="452.946px" style="font-family:'HelveticaCE', 'Helvetica', fantasy;font-size:1.187px;">numbers: 6px, 8px etc.</text><text x="-8.66px" y="455.171px" style="font-family:'ArialMT', 'Arial', sans-serif;font-size:1.187px;">Remember to expand strokes</text><text x="-8.66px" y="456.654px" style="font-family:'ArialMT', 'Arial', sans-serif;font-size:1.187px;">before saving as an SVG</text></g><rect x="12.354" y="443.227" width="17.306" height="16.069" style="fill:none;"/><g><text x="12.354px" y="444.293px" style="font-family:'ArialMT', 'Arial', sans-serif;font-size:1.483px;">Size</text><text x="12.354px" y="446.766px" style="font-family:'HelveticaCE', 'Helvetica', fantasy;font-size:1.187px;">Cannot be wider or taller than</text><text x="12.354px" y="448.496px" style="font-family:'HelveticaCE', 'Helvetica', fantasy;font-size:1.187px;">100px (artboard size)</text><text x="12.354px" y="450.968px" style="font-family:'HelveticaCE', 'Helvetica', fantasy;font-size:1.187px;">Scale your icon to fill as much of</text><text x="12.354px" y="452.452px" style="font-family:'HelveticaCE', 'Helvetica', fantasy;font-size:1.187px;">the artboard as possible</text></g><rect x="33.368" y="443.227" width="17.306" height="16.069" style="fill:none;"/><g><text x="33.368px" y="444.293px" style="font-family:'ArialMT', 'Arial', sans-serif;font-size:1.483px;">Ungroup</text><text x="33.368px" y="446.766px" style="font-family:'HelveticaCE', 'Helvetica', fantasy;font-size:1.187px;">If your design has more than one</text><text x="33.368px" y="448.249px" style="font-family:'HelveticaCE', 'Helvetica', fantasy;font-size:1.187px;">shape, make sure to ungroup</text></g><rect x="55.124" y="443.227" width="17.306" height="16.069" style="fill:none;"/><g><text x="55.124px" y="444.293px" style="font-family:'ArialMT', 'Arial', sans-serif;font-size:1.483px;">Save as</text><text x="55.124px" y="446.766px" style="font-family:'HelveticaCE', 'Helvetica', fantasy;font-size:1.187px;">Save as .SV<tspan x="61.553px " y="446.766px ">G</tspan> and make sure</text><text x="55.124px" y="448.249px" style="font-family:'HelveticaCE', 'Helvetica', fantasy;font-size:1.187px;">“Use Artboards” is checked</text></g><text x="17.772px" y="429.676px" style="font-family:'HelveticaCE', 'Helvetica', fantasy;font-size:1.272px;">100px</text><text x="59.574px" y="433.832px" style="font-family:'ArialMT', 'Arial', sans-serif;font-size:2.545px;">.SVG</text><rect x="17.292" y="431.763" width="5.074" height="5.036"/><rect x="17.31" y="430.255" width="0.258" height="1.156"/><rect x="22.089" y="430.255" width="0.259" height="1.156"/><rect x="17.051" y="430.538" width="5.554" height="0.283"/><g><rect x="38.409" y="431.283" width="5.095" height="5.022"/><rect x="41.868" y="428.743" width="1.636" height="1.612"/></g><rect x="-8.413" y="425.674" width="14.833" height="14.833" style="stroke:#fff;stroke-width:0.49px;"/><rect x="12.354" y="425.674" width="14.833" height="14.833" style="stroke:#fff;stroke-width:0.49px;"/><rect x="33.615" y="425.674" width="14.833" height="14.833" style="stroke:#fff;stroke-width:0.49px;"/><rect x="55.371" y="425.674" width="14.833" height="14.833" style="stroke:#fff;stroke-width:0.49px;"/></g><g><g><circle cx="104.35" cy="438.235" r="5.458" style="fill:#fff;"/><path d="M122.219,444.289l-0.211,-0.098c-1.044,-0.486 -2.287,-0.032 -2.772,1.013l-3.053,6.563l-3.61,-6.348c-0.57,-1.002 -1.845,-1.352 -2.848,-0.782l-0.201,0.114c-0.051,0.028 -0.098,0.06 -0.145,0.094c-0.041,-0.003 -0.083,-0.008 -0.125,-0.008l-9.81,0c-0.879,0 -1.63,0.545 -1.938,1.315c-0.561,0.12 -1.073,0.467 -1.379,1.006l-3.611,6.347l-3.052,-6.562c-0.487,-1.045 -1.729,-1.498 -2.773,-1.013l-0.211,0.099c-1.045,0.484 -1.498,1.728 -1.013,2.774l4.874,10.476c0.445,0.959 1.524,1.415 2.505,1.114c0.569,-0.117 1.088,-0.466 1.397,-1.011l3.114,-5.473l0,7.009c0,1.152 0.934,2.087 2.087,2.087l9.81,0c1.153,0 2.089,-0.935 2.089,-2.087l0,-8.748l3.112,5.473c0.309,0.546 0.83,0.896 1.397,1.012c0.982,0.303 2.061,-0.156 2.506,-1.113l4.872,-10.478c0.489,-1.047 0.035,-2.288 -1.011,-2.775Z" style="fill:#fff;"/></g><g><path d="M107.985,421.729c-0.059,0.814 -0.436,1.52 -1.144,1.248c-0.11,-0.348 0.022,-0.711 -0.015,-1c-0.21,-1.673 -2.747,-1.985 -3.005,0.216c-2.096,-0.688 -4.191,-1.378 -6.286,-2.066c0.84,-2.44 -2.516,-3.573 -2.967,-0.977c-0.778,-0.235 -1.177,-0.698 -0.796,-1.625c0.746,-0.622 1.425,-1.092 2.52,-1.06c0.342,0.012 0.729,0.19 1.143,0.167c0.328,-0.019 0.644,-0.305 0.968,-0.415c0.955,-0.327 2.109,-0.537 3.393,-0.248c3.416,0.773 4.76,3.387 6.189,5.76Zm-8.924,-5.137c-0.061,0.225 -0.122,0.448 -0.182,0.674c1.227,0.437 2.363,0.688 3.593,1.129c0.142,-0.529 0.285,-1.061 0.428,-1.59c-1.451,-0.705 -2.859,-0.715 -3.839,-0.213Zm3.977,1.99c0.757,0.248 1.513,0.497 2.27,0.746c-0.212,-1.004 -0.968,-1.685 -1.91,-2.254c-0.183,0.54 -0.199,0.982 -0.36,1.508Z" style="fill:#fff;"/><path d="M96.232,417.917c0.884,0.084 1.384,0.812 1.172,1.643c-0.426,1.673 -2.819,0.847 -2.414,-0.742c0.147,-0.582 0.57,-0.969 1.242,-0.901Z" style="fill:#fff;"/><path d="M105.398,420.931c0.932,0.068 1.486,0.888 1.12,1.835c-0.63,1.632 -3.149,0.285 -2.157,-1.339c0.146,-0.241 0.514,-0.536 1.037,-0.496Z" style="fill:#fff;"/></g><g><path d="M122.588,434.45c0,0 0.04,0.261 0.233,0.773c0.51,-0.461 1.104,-0.842 1.766,-1.087c0.021,-0.006 0.039,-0.014 0.059,-0.021c-0.017,-1.984 -0.686,-4.24 -0.539,-4.909c0,0 -0.502,0.635 -2.205,2.866c-1.075,1.409 -1.062,3.621 -0.33,4.693c0.241,-0.414 0.537,-0.813 0.881,-1.178c-0.016,-0.88 0.135,-1.137 0.135,-1.137Z" style="fill:#fff;fill-rule:nonzero;"/><path d="M128.999,432.85c0,0 -0.97,0.337 -4.309,1.567c-2.881,1.061 -4.61,5.105 -2.819,6.197c1.18,-2.808 3.199,-4.519 3.199,-4.519c0,0 -1.709,2.344 -1.829,4.779c3.279,-0.314 4.777,-7.042 5.758,-8.024Z" style="fill:#fff;fill-rule:nonzero;"/></g><path d="M117.827,417.798c1.389,0.071 2.7,0.253 4.079,0.336c-0.008,0.772 -0.048,1.523 -0.052,2.296c-0.66,-0.013 -1.254,-0.121 -1.893,-0.163c0.383,2.069 0.784,4.113 1.198,6.138c-1.891,0.359 -3.783,0.718 -5.673,1.078c-0.45,-1.972 -0.791,-4.105 -1.197,-6.14c-0.524,0.202 -1.093,0.61 -1.664,0.87c-0.29,-0.754 -0.631,-1.437 -0.935,-2.172c1.213,-0.574 2.485,-1.253 3.647,-1.771c0.396,0.264 0.702,0.669 1.233,0.649c0.763,-0.032 0.993,-0.71 1.257,-1.121Z" style="fill:#fff;"/><path d="M83.402,436.068c0,0 -4.358,0.031 -3.425,3.256l1.446,4.993l9.643,-3.396l-1.266,-4.374l-6.398,-0.479Zm-3.02,1.979c0.169,0.163 0.441,0.23 0.713,0.151c0.381,-0.111 0.615,-0.465 0.52,-0.792c-0.059,-0.206 -0.235,-0.351 -0.451,-0.404c0.34,-0.213 0.816,-0.406 1.481,-0.554c0.138,-0.03 0.604,0.007 1.074,0.055c-0.323,0.134 -0.533,0.311 -0.496,0.438c0.045,0.157 0.455,0.176 0.916,0.044c0.309,-0.09 0.561,-0.224 0.68,-0.352c0.032,0.005 0.051,0.007 0.051,0.007l1.852,0.228l-0.512,0.176l-1.731,0.595l-3.985,1.167c0,0 -0.18,-0.331 -0.112,-0.759Zm2.582,4.469c-0.306,0.088 -0.622,-0.072 -0.704,-0.357c-0.084,-0.288 0.098,-0.592 0.403,-0.68c0.305,-0.089 0.621,0.072 0.703,0.358c0.083,0.288 -0.097,0.592 -0.402,0.679Zm0.249,-2.114c-0.524,0.152 -1.058,-0.096 -1.191,-0.555c-0.133,-0.458 0.185,-0.953 0.711,-1.105c0.525,-0.153 1.059,0.096 1.192,0.553c0.132,0.46 -0.186,0.955 -0.712,1.107Zm1.133,-0.553c-0.088,-0.307 0.127,-0.636 0.48,-0.738c0.353,-0.104 0.712,0.061 0.801,0.367c0.088,0.306 -0.127,0.638 -0.481,0.74c-0.354,0.1 -0.712,-0.063 -0.8,-0.369Zm2.621,1.996c-0.535,0.154 -1.079,-0.098 -1.214,-0.567c-0.135,-0.467 0.189,-0.972 0.724,-1.127c0.534,-0.154 1.078,0.098 1.213,0.567c0.136,0.468 -0.189,0.974 -0.723,1.127Zm-0.599,-3.687c-0.415,0.119 -0.814,0.082 -1.05,-0.072l1.859,-0.471c-0.143,0.227 -0.437,0.436 -0.809,0.543Zm2.396,1.929c-0.343,0.099 -0.694,-0.067 -0.783,-0.372c-0.088,-0.306 0.118,-0.633 0.462,-0.734c0.345,-0.098 0.694,0.068 0.783,0.374c0.089,0.306 -0.119,0.635 -0.462,0.732Z" style="fill:#fff;"/><g><path d="M86.078,426.478c0.34,-1.153 0.178,-2.343 -0.358,-3.333c-0.99,0.511 -1.79,1.385 -2.189,2.511l2.547,0.822Z" style="fill:#fff;"/><path d="M87.949,427.085l1.404,0.453c0.421,-1.197 1.291,-2.117 2.359,-2.635c-0.522,-0.904 -1.356,-1.63 -2.411,-2.002l-1.352,4.184Z" style="fill:#fff;"/><path d="M87.715,427.008l1.353,-4.183c-1.074,-0.316 -2.175,-0.214 -3.126,0.213c0.563,1.044 0.729,2.299 0.37,3.516l1.403,0.454Z" style="fill:#fff;"/><path d="M89.587,427.613l2.546,0.823c0.337,-1.145 0.198,-2.324 -0.305,-3.317c-1.013,0.487 -1.84,1.359 -2.241,2.494Z" style="fill:#fff;"/><path d="M89.51,427.846c-0.338,1.155 -0.178,2.347 0.359,3.334c0.99,-0.511 1.793,-1.385 2.189,-2.51l-2.548,-0.824Z" style="fill:#fff;"/><path d="M89.278,427.772l-1.404,-0.454l-1.351,4.183c1.072,0.316 2.175,0.214 3.125,-0.213c-0.562,-1.044 -0.729,-2.299 -0.37,-3.516Z" style="fill:#fff;"/><path d="M83.456,425.89c-0.337,1.145 -0.198,2.323 0.306,3.316c1.014,-0.488 1.84,-1.359 2.241,-2.494l-2.547,-0.822Z" style="fill:#fff;"/><path d="M87.64,427.242l-1.403,-0.454c-0.422,1.197 -1.291,2.119 -2.358,2.635c0.52,0.904 1.354,1.63 2.41,2.004l1.351,-4.185Z" style="fill:#fff;"/></g></g></g></g><rect id="ico_building2" x="336.65" y="473.549" width="50" height="50" style="fill:none;"/><g><path d="M358.251,480.101l-9.223,0l0,9.273l9.274,0l0,-9.273l-0.051,0Zm-2.016,7.257l-5.191,0l0,-5.241l5.242,0l0,5.241l-0.051,0Z" style="fill:#fff;fill-rule:nonzero;"/><path d="M372.767,480.101l-9.274,0l0,9.273l9.274,0l0,-9.273Zm-2.016,7.257l-5.242,0l0,-5.241l5.242,0l0,5.241Z" style="fill:#fff;fill-rule:nonzero;"/><path d="M358.251,490.08l-9.223,0l0,9.274l9.274,0l0,-9.274l-0.051,0Zm-2.016,7.258l-5.191,0l0,-5.242l5.242,0l0,5.242l-0.051,0Z" style="fill:#fff;fill-rule:nonzero;"/><path d="M372.767,490.08l-9.274,0l0,9.274l9.274,0l0,-9.274Zm-2.016,7.258l-5.242,0l0,-5.242l5.242,0l0,5.242Z" style="fill:#fff;fill-rule:nonzero;"/><path d="M358.251,500.059l-9.223,0l0,9.274l9.274,0l0,-9.274l-0.051,0Zm-2.016,7.207l-5.191,0l0,-5.191l5.242,0l0,5.191l-0.051,0Z" style="fill:#fff;fill-rule:nonzero;"/><path d="M372.767,500.059l-9.274,0l0,9.274l9.274,0l0,-9.274Zm-2.016,7.207l-5.242,0l0,-5.191l5.242,0l0,5.191Z" style="fill:#fff;fill-rule:nonzero;"/><path d="M343.535,475.514l0,46.52l14.263,0l0,-8.165l6.149,0l0,8.165l14.263,0l0,-46.52l-34.675,0Zm32.659,44.453l-10.231,0l0,-8.114l-10.181,0l0,8.165l-10.231,0l0,-42.488l30.592,0l0,42.437l0.051,0Z" style="fill:#fff;fill-rule:nonzero;"/></g><rect id="ico_house2" x="368.977" y="188.625" width="50" height="50" style="fill:none;"/><path d="M372.181,214.178l2.655,0l0,22.571c0,0.733 0.594,1.328 1.328,1.328l34.519,0c0.734,0 1.328,-0.595 1.328,-1.328l0,-22.571l2.655,0c0.537,0 1.022,-0.323 1.227,-0.819c0.206,-0.496 0.092,-1.067 -0.288,-1.447l-21.243,-21.243c-0.518,-0.518 -1.359,-0.518 -1.877,0l-21.243,21.243c-0.379,0.38 -0.493,0.951 -0.288,1.447c0.205,0.496 0.69,0.819 1.227,0.819Zm30.536,21.243l-5.311,0l0,-13.277l5.311,0l0,13.277Zm6.639,0l-3.983,0l0,-14.604c0,-0.734 -0.595,-1.328 -1.328,-1.328l-7.966,0c-0.734,0 -1.328,0.594 -1.328,1.328l0,14.604l-17.26,0l0,-21.243l31.865,0l0,21.243Zm-15.933,-41.935l18.038,18.037l-36.075,0l18.037,-18.037Z" style="fill:#fff;fill-rule:nonzero;"/><path d="M382.802,230.111l7.966,0c0.734,0 1.328,-0.595 1.328,-1.328l0,-7.966c0,-0.734 -0.594,-1.328 -1.328,-1.328l-7.966,0c-0.733,0 -1.328,0.594 -1.328,1.328l0,7.966c0,0.733 0.595,1.328 1.328,1.328Zm1.328,-7.967l5.31,0l0,5.311l-5.31,0l0,-5.311Z" style="fill:#fff;fill-rule:nonzero;"/><rect id="ico_yes" x="365.234" y="0" width="50" height="50" style="fill:none;"/><path d="M397.187,4.464c1.852,0 3.353,1.501 3.353,3.354c0,4.729 -1.306,8.105 -2.909,10.468l11.976,0.095l0.017,0l0,0.001c1.528,0.141 2.724,1.425 2.724,2.99c0,1.66 -1.345,3.005 -3.004,3.005l-0.623,-0.017c1.248,0.365 2.16,1.516 2.16,2.881c0,1.64 -1.314,2.97 -2.946,3.002c1.221,0.381 2.108,1.521 2.108,2.868c0,1.528 -1.143,2.787 -2.62,2.977c1.268,0.351 2.2,1.511 2.2,2.892c0,1.659 -1.344,3.004 -3.004,3.004l-14.889,-0.001c-6.696,0 -10.053,-2.624 -10.053,-5.861l0,-17.963l2.973,0.023c0.126,-0.014 0.254,-0.023 0.384,-0.023c0.9,0 8.799,-0.291 8.799,-10.341c0.001,-1.853 1.502,-3.354 3.354,-3.354m0,-2.096c-3.005,0 -5.449,2.445 -5.449,5.449c0,3.453 -1.041,5.866 -3.092,7.172c-1.639,1.043 -3.415,1.073 -3.612,1.073c-0.156,0 -0.315,0.008 -0.482,0.023l-2.859,-0.023c-0.005,0 -0.011,0 -0.016,0c-0.553,0 -1.084,0.218 -1.476,0.608c-0.397,0.394 -0.62,0.929 -0.62,1.488l0,17.964c0,2.391 1.24,4.491 3.491,5.916c2.141,1.354 5.054,2.041 8.658,2.041l14.889,0.001c2.813,0 5.101,-2.288 5.101,-5.1c0,-0.954 -0.268,-1.861 -0.741,-2.639c0.727,-0.884 1.16,-2.014 1.16,-3.231c0,-0.842 -0.203,-1.644 -0.569,-2.352c0.908,-0.952 1.407,-2.198 1.407,-3.517c0,-0.677 -0.137,-1.334 -0.387,-1.937c1.132,-0.937 1.855,-2.351 1.855,-3.932c0,-2.624 -1.95,-4.789 -4.549,-5.069c-0.085,-0.011 -0.172,-0.017 -0.26,-0.017l-0.016,0l-8.518,-0.068c1.019,-2.492 1.534,-5.303 1.534,-8.4c0,-3.005 -2.444,-5.45 -5.449,-5.45Z" style="fill:#fff;fill-rule:nonzero;"/><path d="M366.828,16.063l0,28.016l10.992,0l0,-28.016l-10.992,0Zm5.496,24.319c-0.995,0 -1.802,-0.807 -1.802,-1.802c0,-0.995 0.807,-1.802 1.802,-1.802c0.995,0 1.802,0.807 1.802,1.802c0,0.995 -0.806,1.802 -1.802,1.802Z" style="fill:#fff;fill-rule:nonzero;"/><rect id="ico_no" x="437.303" y="0" width="50" height="50" style="fill:none;"/><clipPath id="_clip5"><rect x="437.303" y="0" width="50" height="50"/></clipPath><g clip-path="url(#_clip5)"><g><path d="M469.182,47.799c1.944,0 3.521,-1.576 3.521,-3.521c0,-4.967 -1.372,-8.511 -3.056,-10.992l12.577,-0.1l0.017,0l0,-0.001c1.604,-0.148 2.861,-1.497 2.861,-3.14c0,-1.743 -1.413,-3.155 -3.155,-3.155l-0.654,0.018c1.31,-0.383 2.268,-1.592 2.268,-3.026c0,-1.721 -1.38,-3.118 -3.094,-3.152c1.283,-0.4 2.214,-1.597 2.214,-3.011c0,-1.605 -1.2,-2.927 -2.751,-3.126c1.331,-0.369 2.31,-1.587 2.31,-3.037c0,-1.742 -1.412,-3.154 -3.154,-3.154l-15.635,0c-7.031,0 -10.556,2.756 -10.556,6.155l0,18.863l3.122,-0.025c0.132,0.015 0.267,0.025 0.403,0.025c0.946,0 9.24,0.304 9.24,10.858c0,1.945 1.577,3.521 3.522,3.521m0,2.201c-3.156,0 -5.723,-2.567 -5.723,-5.722c0,-3.625 -1.092,-6.159 -3.246,-7.53c-1.721,-1.096 -3.585,-1.127 -3.792,-1.127c-0.165,0 -0.332,-0.008 -0.507,-0.024l-3.001,0.024c-0.006,0 -0.012,0 -0.018,0c-0.58,0 -1.137,-0.229 -1.55,-0.639c-0.416,-0.413 -0.651,-0.975 -0.651,-1.562l0,-18.863c0,-2.51 1.302,-4.716 3.666,-6.212c2.248,-1.422 5.307,-2.143 9.091,-2.143l15.635,-0.001c2.953,0 5.356,2.403 5.356,5.356c0,1.001 -0.282,1.953 -0.778,2.77c0.763,0.929 1.218,2.115 1.218,3.392c0,0.885 -0.213,1.727 -0.598,2.471c0.954,0.999 1.478,2.308 1.478,3.693c0,0.711 -0.144,1.4 -0.406,2.034c1.188,0.983 1.947,2.468 1.947,4.128c0,2.755 -2.047,5.029 -4.776,5.323c-0.09,0.011 -0.181,0.018 -0.273,0.018l-0.017,0l-8.944,0.071c1.07,2.616 1.611,5.569 1.611,8.821c-0.001,3.155 -2.567,5.722 -5.722,5.722Z" style="fill:#fff;fill-rule:nonzero;"/><path d="M437.303,6.765l0,29.419l11.543,0l0,-29.419l-11.543,0Zm5.771,25.537c-1.045,0 -1.892,-0.847 -1.892,-1.893c0,-1.044 0.847,-1.892 1.892,-1.892c1.045,0 1.893,0.847 1.893,1.892c0,1.046 -0.847,1.893 -1.893,1.893Z" style="fill:#fff;fill-rule:nonzero;"/></g></g><rect id="ico_blueprint" x="506.51" y="277.178" width="50" height="50" style="fill:none;"/><clipPath id="_clip6"><rect x="506.51" y="277.178" width="50" height="50"/></clipPath><g clip-path="url(#_clip6)"><path d="M521.15,305.624l0.884,-0.797l0,11.13c0,0.696 0.573,1.269 1.27,1.269l17.215,0c0.697,0 1.27,-0.573 1.27,-1.269l0,-11.135l0.879,0.802c0.23,0.199 0.524,0.308 0.829,0.308c0.696,0 1.27,-0.573 1.27,-1.27c0,-0.349 -0.144,-0.683 -0.398,-0.922l-11.612,-10.485c-0.481,-0.434 -1.221,-0.434 -1.702,0l-11.607,10.475c-0.269,0.241 -0.423,0.586 -0.423,0.947c0,0.698 0.575,1.273 1.274,1.273c0.314,0 0.617,-0.116 0.851,-0.326l0,0Zm12.44,9.063l-3.363,0l0,-4.699l3.358,0l0.005,4.699Zm-1.681,-18.78l7.34,6.603l0,12.177l-3.119,0l0,-5.969c0,-0.697 -0.573,-1.27 -1.27,-1.27l-5.903,0c-0.696,0 -1.27,0.573 -1.27,1.27l0,5.969l-3.119,0l0,-12.156l7.341,-6.624Z" style="fill:#fff;fill-rule:nonzero;"/><path d="M512.534,324.419l38.749,0c2.938,-0.002 5.354,-2.421 5.354,-5.359c0,-0.003 0,-0.007 0,-0.01l0,-33.13c0,-0.003 0,-0.007 0,-0.01c0,-2.838 -2.334,-5.174 -5.171,-5.177l-2.952,0c-0.696,0 -1.27,0.574 -1.27,1.27l0,4.42l-30.671,0l0,-4.399c0,-0.007 0,-0.014 0,-0.021c0,-0.696 -0.573,-1.27 -1.27,-1.27c0,0 0,0 0,0l-2.951,0c-2.838,0.003 -5.172,2.339 -5.172,5.177c0,0.003 0,0.007 0,0.01l0,33.13c0,0.003 0,0.007 0,0.01c0,2.938 2.416,5.357 5.354,5.359l0,0Zm37.25,-41.146l1.682,0c1.443,0 2.631,1.188 2.631,2.632l0,28.583c-0.846,-0.52 -1.821,-0.794 -2.814,-0.792l-1.524,0l0.025,-30.423Zm-40.064,2.647c0,-0.005 0,-0.01 0,-0.015c0,-1.444 1.188,-2.632 2.632,-2.632l1.681,0l0,30.423l-1.524,0c-0.993,-0.002 -1.968,0.272 -2.814,0.792l0.025,-28.568Zm0,32.825c0.016,-0.053 0.028,-0.107 0.036,-0.162c0.219,-1.354 1.402,-2.357 2.773,-2.352l2.769,0c0.697,0 1.27,-0.573 1.27,-1.27l0,-25.998l30.676,0l0,26.003c0,0.697 0.574,1.27 1.27,1.27l2.769,0c1.371,-0.005 2.554,0.998 2.773,2.352c0.009,0.055 0.021,0.109 0.036,0.162l0,0.3c0,0.005 0,0.01 0,0.015c0,1.542 -1.267,2.812 -2.809,2.815l-38.749,0c-1.543,0 -2.814,-1.271 -2.814,-2.815l0,-0.32Z" style="fill:#fff;fill-rule:nonzero;"/></g><rect id="ico_children" x="506.51" y="345.728" width="50" height="50" style="fill:none;"/><clipPath id="_clip7"><rect x="506.51" y="345.728" width="50" height="50"/></clipPath><g clip-path="url(#_clip7)"><clipPath id="_clip8"><rect id="noun_98312_cc1" x="499.78" y="331.728" width="51.2" height="64"/></clipPath><g clip-path="url(#_clip8)"><circle cx="525.585" cy="350.109" r="4.045" style="fill:#fff;"/><path d="M534.596,372.688l0,-12.442c0,-2.918 -1.792,-5.273 -4.659,-5.273l-9.062,0c-3.175,0 -4.711,2.662 -4.711,5.325l0,12.39c0,2.458 3.175,2.458 3.175,0l0,-12.083l0.972,0l0,32.87c0,1.229 1.024,2.253 2.253,2.253c1.28,0 2.253,-1.024 2.253,-2.253l0,-19.046l1.024,0l0,19.046c0,1.229 1.024,2.253 2.253,2.253c1.28,0 2.253,-1.024 2.253,-2.253l0,-32.87l1.024,0l0,12.083c0,2.458 3.225,2.458 3.225,0Z" style="fill:#fff;fill-rule:nonzero;"/></g><circle cx="541.07" cy="367.992" r="2.459" style="fill:#fff;"/><path d="M546.548,381.72l0,-7.565c0,-1.774 -1.089,-3.206 -2.832,-3.206l-5.51,0c-1.93,0 -2.864,1.619 -2.864,3.237l0,7.534c0,1.494 1.93,1.494 1.93,0l0,-7.347l0.591,0l0,19.985c0,0.747 0.623,1.37 1.37,1.37c0.778,0 1.37,-0.623 1.37,-1.37l0,-11.58l0.622,0l0,11.58c0,0.747 0.623,1.37 1.37,1.37c0.778,0 1.37,-0.623 1.37,-1.37l0,-19.985l0.622,0l0,7.347c0,1.494 1.961,1.494 1.961,0Z" style="fill:#fff;fill-rule:nonzero;"/></g></svg>