<?xml version="1.0" encoding="UTF-8" standalone="no"?><!DOCTYPE svg PUBLIC "-//W3C//DTD SVG 1.1//EN" "http://www.w3.org/Graphics/SVG/1.1/DTD/svg11.dtd"><svg width="100%" height="100%" viewBox="0 0 116 40" version="1.1" xmlns="http://www.w3.org/2000/svg" xmlns:xlink="http://www.w3.org/1999/xlink" xml:space="preserve" style="fill-rule:evenodd;clip-rule:evenodd;stroke-linejoin:round;stroke-miterlimit:1.41421;"><rect id="Artboard1" x="0" y="0" width="116" height="40" style="fill:none;"/><g><g transform="matrix(0.934109,0,0,0.934109,-1425.85,-53.9946)"><text x="1570.01px" y="74.069px" style="font-family:'Muli-Bold', 'Muli';font-weight:700;font-size:20.38px;fill:#fff;">primeir<tspan x="1638.55px " y="74.069px ">o</tspan></text><text x="1570.01px" y="95.086px" style="font-family:'Muli-Bold', 'Muli';font-weight:700;font-size:20.38px;fill:#fff;">imó<tspan x="1605.53px 1616.41px " y="95.086px 95.086px ">ve</tspan>l</text></g><path d="M0.093,16.599c-0.105,0.356 -0.093,0.739 -0.093,0.739l0.023,16.603c0,0 0.209,1.038 1.038,1.038c0.83,0 1.038,-1.038 1.038,-1.038l0,-16.245l5.188,-2.432l0,17.639c0,0 0.091,2.076 2.075,2.076c1.983,0 6.225,0 6.225,0c0,0 2.093,-0.117 2.093,-2.076c0,-1.958 0,-15.207 0,-15.207c0,0 0.126,-1.991 -1.055,-2.432c-1.181,-0.441 -6.226,-2.635 -6.226,-2.635c0,0 -0.669,-0.446 -2.075,0c-1.2,0.38 -5.894,2.638 -7.391,3.335c-0.257,0.119 -0.772,0.406 -0.84,0.635Z" style="fill:#fff;"/><path d="M14.55,8.001l10.376,-4.15l0,29.052c0,0 -0.168,2.076 2.075,2.076c2.243,0 11.414,0 11.414,0c0,0 1.037,-0.259 1.037,-2.076c0,-1.816 0,-25.94 0,-25.94c0,0 -0.01,-1.494 -1.037,-2.075c-1.028,-0.581 -10.376,-4.15 -10.376,-4.15c0,0 -1.474,-0.728 -3.113,0c-1.639,0.727 -11.414,4.15 -11.414,4.15c0,0 -2.075,0.83 -2.075,3.113c0,1.88 0,7.263 0,7.263l3.113,1.038l0,-8.301Z" style="fill:#fff;"/></g></svg>