<?xml version="1.0" encoding="UTF-8" standalone="no"?><!DOCTYPE svg PUBLIC "-//W3C//DTD SVG 1.1//EN" "http://www.w3.org/Graphics/SVG/1.1/DTD/svg11.dtd"><svg width="100%" height="100%" viewBox="0 0 51 51" version="1.1" xmlns="http://www.w3.org/2000/svg" xmlns:xlink="http://www.w3.org/1999/xlink" xml:space="preserve" style="fill-rule:evenodd;clip-rule:evenodd;stroke-linejoin:round;stroke-miterlimit:1.41421;"><rect id="ico_children" x="0.51" y="0.728" width="50" height="50" style="fill:none;"/><clipPath id="_clip1"><rect x="0.51" y="0.728" width="50" height="50"/></clipPath><g clip-path="url(#_clip1)"><clipPath id="_clip2"><rect id="noun_98312_cc" x="-6.22" y="-13.272" width="51.2" height="64"/></clipPath><g clip-path="url(#_clip2)"><circle cx="19.585" cy="5.109" r="4.045" style="fill:#fff;"/><path d="M28.596,27.688l0,-12.442c0,-2.918 -1.792,-5.273 -4.659,-5.273l-9.062,0c-3.175,0 -4.711,2.662 -4.711,5.325l0,12.39c0,2.458 3.175,2.458 3.175,0l0,-12.083l0.972,0l0,32.87c0,1.229 1.024,2.253 2.253,2.253c1.28,0 2.253,-1.024 2.253,-2.253l0,-19.046l1.024,0l0,19.046c0,1.229 1.024,2.253 2.253,2.253c1.28,0 2.253,-1.024 2.253,-2.253l0,-32.87l1.024,0l0,12.083c0,2.458 3.225,2.458 3.225,0Z" style="fill:#fff;fill-rule:nonzero;"/></g><circle cx="35.07" cy="22.992" r="2.459" style="fill:#fff;"/><path d="M40.548,36.72l0,-7.565c0,-1.774 -1.089,-3.206 -2.832,-3.206l-5.51,0c-1.93,0 -2.864,1.619 -2.864,3.237l0,7.534c0,1.494 1.93,1.494 1.93,0l0,-7.347l0.591,0l0,19.985c0,0.747 0.623,1.37 1.37,1.37c0.778,0 1.37,-0.623 1.37,-1.37l0,-11.58l0.622,0l0,11.58c0,0.747 0.623,1.37 1.37,1.37c0.778,0 1.37,-0.623 1.37,-1.37l0,-19.985l0.622,0l0,7.347c0,1.494 1.961,1.494 1.961,0Z" style="fill:#fff;fill-rule:nonzero;"/></g></svg>