<?xml version="1.0" encoding="UTF-8" standalone="no"?><!DOCTYPE svg PUBLIC "-//W3C//DTD SVG 1.1//EN" "http://www.w3.org/Graphics/SVG/1.1/DTD/svg11.dtd"><svg width="100%" height="100%" viewBox="0 0 51 51" version="1.1" xmlns="http://www.w3.org/2000/svg" xmlns:xlink="http://www.w3.org/1999/xlink" xml:space="preserve" style="fill-rule:evenodd;clip-rule:evenodd;stroke-linejoin:round;stroke-miterlimit:1.41421;"><rect id="ico_house" x="0.872" y="0.625" width="50" height="50" style="fill:none;"/><path d="M48.906,27.796l-2.49,2.49c-0.466,0.467 -1.222,0.467 -1.688,0l-18.856,-18.855l-18.855,18.855c-0.466,0.467 -1.222,0.467 -1.688,0l-2.491,-2.49c-0.466,-0.466 -0.466,-1.222 0,-1.688l22.19,-22.19c0.466,-0.466 1.222,-0.466 1.688,0l22.19,22.19c0.466,0.466 0.466,1.222 0,1.688Zm-23.034,-13.977l16.715,16.715l0,17.311c0,0.66 -0.534,1.194 -1.194,1.194l-15.521,0c-0.659,0 -1.194,-0.534 -1.194,-1.194l0,-12.536c0,-0.329 -0.267,-0.597 -0.597,-0.597l-8.357,0c-0.329,0 -0.597,0.268 -0.597,0.597l0,12.536c0,0.66 -0.534,1.194 -1.194,1.194l-3.582,0c-0.659,0 -1.193,-0.534 -1.193,-1.194l0,-17.311l16.714,-16.715Zm3.582,27.46c0,0.329 0.267,0.597 0.597,0.597l5.969,0c0.33,0 0.597,-0.268 0.597,-0.597l0,-5.97c0,-0.329 -0.267,-0.597 -0.597,-0.597l-5.969,0c-0.33,0 -0.597,0.268 -0.597,0.597l0,5.97Z" style="fill:#fff;fill-rule:nonzero;"/></svg>