<?xml version="1.0" encoding="UTF-8" standalone="no"?><!DOCTYPE svg PUBLIC "-//W3C//DTD SVG 1.1//EN" "http://www.w3.org/Graphics/SVG/1.1/DTD/svg11.dtd"><svg width="100%" height="100%" viewBox="0 0 51 50" version="1.1" xmlns="http://www.w3.org/2000/svg" xmlns:xlink="http://www.w3.org/1999/xlink" xml:space="preserve" style="fill-rule:evenodd;clip-rule:evenodd;stroke-linejoin:round;stroke-miterlimit:1.41421;"><rect id="ico_no" x="0.303" y="0" width="50" height="50" style="fill:none;"/><clipPath id="_clip1"><rect x="0.303" y="0" width="50" height="50"/></clipPath><g clip-path="url(#_clip1)"><g><path d="M32.182,47.799c1.944,0 3.521,-1.576 3.521,-3.521c0,-4.967 -1.372,-8.511 -3.056,-10.992l12.577,-0.1l0.017,0l0,-0.001c1.604,-0.148 2.861,-1.497 2.861,-3.14c0,-1.743 -1.413,-3.155 -3.155,-3.155l-0.654,0.018c1.31,-0.383 2.268,-1.592 2.268,-3.026c0,-1.721 -1.38,-3.118 -3.094,-3.152c1.283,-0.4 2.214,-1.597 2.214,-3.011c0,-1.605 -1.2,-2.927 -2.751,-3.126c1.331,-0.369 2.31,-1.587 2.31,-3.037c0,-1.742 -1.412,-3.154 -3.154,-3.154l-15.635,0c-7.031,0 -10.556,2.756 -10.556,6.155l0,18.863l3.122,-0.025c0.132,0.015 0.267,0.025 0.403,0.025c0.946,0 9.24,0.304 9.24,10.858c0,1.945 1.577,3.521 3.522,3.521m0,2.201c-3.156,0 -5.723,-2.567 -5.723,-5.722c0,-3.625 -1.092,-6.159 -3.246,-7.53c-1.721,-1.096 -3.585,-1.127 -3.792,-1.127c-0.165,0 -0.332,-0.008 -0.507,-0.024l-3.001,0.024c-0.006,0 -0.012,0 -0.018,0c-0.58,0 -1.137,-0.229 -1.55,-0.639c-0.416,-0.413 -0.651,-0.975 -0.651,-1.562l0,-18.863c0,-2.51 1.302,-4.716 3.666,-6.212c2.248,-1.422 5.307,-2.143 9.091,-2.143l15.635,-0.001c2.953,0 5.356,2.403 5.356,5.356c0,1.001 -0.282,1.953 -0.778,2.77c0.763,0.929 1.218,2.115 1.218,3.392c0,0.885 -0.213,1.727 -0.598,2.471c0.954,0.999 1.478,2.308 1.478,3.693c0,0.711 -0.144,1.4 -0.406,2.034c1.188,0.983 1.947,2.468 1.947,4.128c0,2.755 -2.047,5.029 -4.776,5.323c-0.09,0.011 -0.181,0.018 -0.273,0.018l-0.017,0l-8.944,0.071c1.07,2.616 1.611,5.569 1.611,8.821c-0.001,3.155 -2.567,5.722 -5.722,5.722Z" style="fill:#fff;fill-rule:nonzero;"/><path d="M0.303,6.765l0,29.419l11.543,0l0,-29.419l-11.543,0Zm5.771,25.537c-1.045,0 -1.892,-0.847 -1.892,-1.893c0,-1.044 0.847,-1.892 1.892,-1.892c1.045,0 1.893,0.847 1.893,1.892c0,1.046 -0.847,1.893 -1.893,1.893Z" style="fill:#fff;fill-rule:nonzero;"/></g></g></svg>