<?xml version="1.0" encoding="UTF-8" standalone="no"?><!DOCTYPE svg PUBLIC "-//W3C//DTD SVG 1.1//EN" "http://www.w3.org/Graphics/SVG/1.1/DTD/svg11.dtd"><svg width="100%" height="100%" viewBox="0 0 50 51" version="1.1" xmlns="http://www.w3.org/2000/svg" xmlns:xlink="http://www.w3.org/1999/xlink" xml:space="preserve" style="fill-rule:evenodd;clip-rule:evenodd;stroke-linejoin:round;stroke-miterlimit:1.41421;"><rect id="ico_price" x="0" y="0.993" width="50" height="50" style="fill:none;"/><path d="M45.881,5.676l-20.232,0.358l-23.53,23.546l19.858,19.841l23.53,-23.53l0.374,-20.215Zm-8.824,5.704c0.798,0 1.584,0.301 2.194,0.91c1.218,1.219 1.218,3.202 0,4.42c-1.219,1.218 -3.186,1.218 -4.404,0c-1.219,-1.218 -1.219,-3.202 0,-4.42c0.609,-0.609 1.411,-0.91 2.21,-0.91Zm-12.951,7.361c0.574,0 1.04,0.466 1.04,1.04l0,0.748c1.361,0.389 2.353,1.433 2.876,2.486c0.303,0.49 0.106,1.221 -0.406,1.479c-0.513,0.258 -1.223,-0.015 -1.43,-0.553c-0.374,-0.752 -1.197,-1.495 -2.178,-1.495c-1.264,0 -2.064,0.69 -2.064,2.08c0.009,1.115 1.282,1.667 2.503,2.178c0.687,0.328 1.516,0.584 2.291,1.154c0.775,0.569 1.398,1.604 1.398,2.908c0,1.967 -1.293,3.512 -2.99,3.998l0,0.617c0,0.575 -0.466,1.04 -1.04,1.04c-0.574,0 -1.04,-0.465 -1.04,-1.04l0,-0.568c-1.465,-0.344 -2.54,-1.448 -3.088,-2.552c-0.303,-0.489 -0.09,-1.22 0.423,-1.478c0.512,-0.258 1.222,0.014 1.43,0.552c0.373,0.752 1.196,1.511 2.177,1.511c1.265,0 2.064,-0.689 2.064,-2.08c-0.009,-1.129 -1.275,-1.681 -2.503,-2.193c-0.686,-0.328 -1.516,-0.585 -2.291,-1.154c-0.775,-0.57 -1.414,-1.589 -1.414,-2.893c0,-2.043 1.406,-3.628 3.202,-4.046l0,-0.699c0,-0.574 0.466,-1.04 1.04,-1.04Z" style="fill:#fff;fill-rule:nonzero;"/></svg>