<?xml version="1.0" encoding="UTF-8" standalone="no"?><!DOCTYPE svg PUBLIC "-//W3C//DTD SVG 1.1//EN" "http://www.w3.org/Graphics/SVG/1.1/DTD/svg11.dtd"><svg width="100%" height="100%" viewBox="0 0 51 51" version="1.1" xmlns="http://www.w3.org/2000/svg" xmlns:xlink="http://www.w3.org/1999/xlink" xml:space="preserve" style="fill-rule:evenodd;clip-rule:evenodd;stroke-linejoin:round;stroke-miterlimit:1.41421;"><rect id="ico_blueprint" x="0.51" y="0.178" width="50" height="50" style="fill:none;"/><clipPath id="_clip1"><rect x="0.51" y="0.178" width="50" height="50"/></clipPath><g clip-path="url(#_clip1)"><path d="M15.15,28.624l0.884,-0.797l0,11.13c0,0.696 0.573,1.269 1.27,1.269l17.215,0c0.697,0 1.27,-0.573 1.27,-1.269l0,-11.135l0.879,0.802c0.23,0.199 0.524,0.308 0.829,0.308c0.696,0 1.27,-0.573 1.27,-1.27c0,-0.349 -0.144,-0.683 -0.398,-0.922l-11.612,-10.485c-0.481,-0.434 -1.221,-0.434 -1.702,0l-11.607,10.475c-0.269,0.241 -0.423,0.586 -0.423,0.947c0,0.698 0.575,1.273 1.274,1.273c0.314,0 0.617,-0.116 0.851,-0.326l0,0Zm12.44,9.063l-3.363,0l0,-4.699l3.358,0l0.005,4.699Zm-1.681,-18.78l7.34,6.603l0,12.177l-3.119,0l0,-5.969c0,-0.697 -0.573,-1.27 -1.27,-1.27l-5.903,0c-0.696,0 -1.27,0.573 -1.27,1.27l0,5.969l-3.119,0l0,-12.156l7.341,-6.624Z" style="fill:#fff;fill-rule:nonzero;"/><path d="M6.534,47.419l38.749,0c2.938,-0.002 5.354,-2.421 5.354,-5.359c0,-0.003 0,-0.007 0,-0.01l0,-33.13c0,-0.003 0,-0.007 0,-0.01c0,-2.838 -2.334,-5.174 -5.171,-5.177l-2.952,0c-0.696,0 -1.27,0.574 -1.27,1.27l0,4.42l-30.671,0l0,-4.399c0,-0.007 0,-0.014 0,-0.021c0,-0.696 -0.573,-1.27 -1.27,-1.27c0,0 0,0 0,0l-2.951,0c-2.838,0.003 -5.172,2.339 -5.172,5.177c0,0.003 0,0.007 0,0.01l0,33.13c0,0.003 0,0.007 0,0.01c0,2.938 2.416,5.357 5.354,5.359l0,0Zm37.25,-41.146l1.682,0c1.443,0 2.631,1.188 2.631,2.632l0,28.583c-0.846,-0.52 -1.821,-0.794 -2.814,-0.792l-1.524,0l0.025,-30.423Zm-40.064,2.647c0,-0.005 0,-0.01 0,-0.015c0,-1.444 1.188,-2.632 2.632,-2.632l1.681,0l0,30.423l-1.524,0c-0.993,-0.002 -1.968,0.272 -2.814,0.792l0.025,-28.568Zm0,32.825c0.016,-0.053 0.028,-0.107 0.036,-0.162c0.219,-1.354 1.402,-2.357 2.773,-2.352l2.769,0c0.697,0 1.27,-0.573 1.27,-1.27l0,-25.998l30.676,0l0,26.003c0,0.697 0.574,1.27 1.27,1.27l2.769,0c1.371,-0.005 2.554,0.998 2.773,2.352c0.009,0.055 0.021,0.109 0.036,0.162l0,0.3c0,0.005 0,0.01 0,0.015c0,1.542 -1.267,2.812 -2.809,2.815l-38.749,0c-1.543,0 -2.814,-1.271 -2.814,-2.815l0,-0.32Z" style="fill:#fff;fill-rule:nonzero;"/></g></svg>