<?xml version="1.0" encoding="UTF-8" standalone="no"?><!DOCTYPE svg PUBLIC "-//W3C//DTD SVG 1.1//EN" "http://www.w3.org/Graphics/SVG/1.1/DTD/svg11.dtd"><svg width="100%" height="100%" viewBox="0 0 51 50" version="1.1" xmlns="http://www.w3.org/2000/svg" xmlns:xlink="http://www.w3.org/1999/xlink" xml:space="preserve" style="fill-rule:evenodd;clip-rule:evenodd;stroke-linejoin:round;stroke-miterlimit:1.41421;"><rect id="ico_yes" x="0.234" y="0" width="50" height="50" style="fill:none;"/><path d="M32.187,4.464c1.852,0 3.353,1.501 3.353,3.354c0,4.729 -1.306,8.105 -2.909,10.468l11.976,0.095l0.017,0l0,0.001c1.528,0.141 2.724,1.425 2.724,2.99c0,1.66 -1.345,3.005 -3.004,3.005l-0.623,-0.017c1.248,0.365 2.16,1.516 2.16,2.881c0,1.64 -1.314,2.97 -2.946,3.002c1.221,0.381 2.108,1.521 2.108,2.868c0,1.528 -1.143,2.787 -2.62,2.977c1.268,0.351 2.2,1.511 2.2,2.892c0,1.659 -1.344,3.004 -3.004,3.004l-14.889,-0.001c-6.696,0 -10.053,-2.624 -10.053,-5.861l0,-17.963l2.973,0.023c0.126,-0.014 0.254,-0.023 0.384,-0.023c0.9,0 8.799,-0.291 8.799,-10.341c0.001,-1.853 1.502,-3.354 3.354,-3.354m0,-2.096c-3.005,0 -5.449,2.445 -5.449,5.449c0,3.453 -1.041,5.866 -3.092,7.172c-1.639,1.043 -3.415,1.073 -3.612,1.073c-0.156,0 -0.315,0.008 -0.482,0.023l-2.859,-0.023c-0.005,0 -0.011,0 -0.016,0c-0.553,0 -1.084,0.218 -1.476,0.608c-0.397,0.394 -0.62,0.929 -0.62,1.488l0,17.964c0,2.391 1.24,4.491 3.491,5.916c2.141,1.354 5.054,2.041 8.658,2.041l14.889,0.001c2.813,0 5.101,-2.288 5.101,-5.1c0,-0.954 -0.268,-1.861 -0.741,-2.639c0.727,-0.884 1.16,-2.014 1.16,-3.231c0,-0.842 -0.203,-1.644 -0.569,-2.352c0.908,-0.952 1.407,-2.198 1.407,-3.517c0,-0.677 -0.137,-1.334 -0.387,-1.937c1.132,-0.937 1.855,-2.351 1.855,-3.932c0,-2.624 -1.95,-4.789 -4.549,-5.069c-0.085,-0.011 -0.172,-0.017 -0.26,-0.017l-0.016,0l-8.518,-0.068c1.019,-2.492 1.534,-5.303 1.534,-8.4c0,-3.005 -2.444,-5.45 -5.449,-5.45Z" style="fill:#fff;fill-rule:nonzero;"/><path d="M1.828,16.063l0,28.016l10.992,0l0,-28.016l-10.992,0Zm5.496,24.319c-0.995,0 -1.802,-0.807 -1.802,-1.802c0,-0.995 0.807,-1.802 1.802,-1.802c0.995,0 1.802,0.807 1.802,1.802c0,0.995 -0.806,1.802 -1.802,1.802Z" style="fill:#fff;fill-rule:nonzero;"/></svg>