<?xml version="1.0" encoding="UTF-8" standalone="no"?><!DOCTYPE svg PUBLIC "-//W3C//DTD SVG 1.1//EN" "http://www.w3.org/Graphics/SVG/1.1/DTD/svg11.dtd"><svg width="100%" height="100%" viewBox="0 0 51 51" version="1.1" xmlns="http://www.w3.org/2000/svg" xmlns:xlink="http://www.w3.org/1999/xlink" xml:space="preserve" style="fill-rule:evenodd;clip-rule:evenodd;stroke-linejoin:round;stroke-miterlimit:1.41421;"><rect id="ico_man" x="0.822" y="0.728" width="50" height="50" style="fill:none;"/><clipPath id="_clip1"><rect x="0.822" y="0.728" width="50" height="50"/></clipPath><g clip-path="url(#_clip1)"><clipPath id="_clip2"><rect id="noun_98312_cc" x="-0.378" y="-13.272" width="51.2" height="64"/></clipPath><g clip-path="url(#_clip2)"><circle cx="25.426" cy="5.109" r="4.045" style="fill:#fff;"/><path d="M34.438,27.688l0,-12.442c0,-2.918 -1.792,-5.273 -4.66,-5.273l-9.062,0c-3.174,0 -4.71,2.662 -4.71,5.325l0,12.39c0,2.458 3.174,2.458 3.174,0l0,-12.083l0.973,0l0,32.87c0,1.229 1.024,2.253 2.253,2.253c1.28,0 2.252,-1.024 2.252,-2.253l0,-19.046l1.024,0l0,19.046c0,1.229 1.024,2.253 2.253,2.253c1.28,0 2.253,-1.024 2.253,-2.253l0,-32.87l1.024,0l0,12.083c0,2.458 3.226,2.458 3.226,0Z" style="fill:#fff;fill-rule:nonzero;"/></g></g></svg>