<?xml version="1.0" encoding="UTF-8" standalone="no"?><!DOCTYPE svg PUBLIC "-//W3C//DTD SVG 1.1//EN" "http://www.w3.org/Graphics/SVG/1.1/DTD/svg11.dtd"><svg width="100%" height="100%" viewBox="0 0 51 51" version="1.1" xmlns="http://www.w3.org/2000/svg" xmlns:xlink="http://www.w3.org/1999/xlink" xml:space="preserve" style="fill-rule:evenodd;clip-rule:evenodd;stroke-linejoin:round;stroke-miterlimit:1.41421;"><rect id="ico_flat" x="0.872" y="0.549" width="50" height="50" style="fill:none;"/><path d="M46.147,33.554l-4.492,-10.714l0,-8.986c0,-1.612 -1.268,-2.88 -2.88,-2.88l-25.805,0c-1.613,0 -2.88,1.268 -2.88,2.88l0,8.986l-4.493,10.714c-0.058,0.115 -0.115,0.288 -0.115,0.46l0,13.94l2.304,0l0,-5.876l36.115,0l0,5.876l2.304,0l0,-6.567l-0.058,0c0.058,-0.115 0.058,-0.288 0.058,-0.461l0,-6.912c0.058,-0.172 0,-0.288 -0.058,-0.46Zm-19.123,-14.112l6.509,0l0,6.163l-6.509,0l0,-6.163Zm-8.813,0l6.509,0l0,6.163l-6.509,0l0,-6.163Zm-9.849,13.42l3.398,-8.064l4.147,0l0,1.901c0,0.634 0.519,1.152 1.152,1.152l17.626,0c0.634,0 1.152,-0.518 1.152,-1.152l0,-1.901l4.147,0l3.399,8.064l-35.021,0Z" style="fill:#fff;fill-rule:nonzero;"/></svg>