<?xml version="1.0" encoding="UTF-8" standalone="no"?><!DOCTYPE svg PUBLIC "-//W3C//DTD SVG 1.1//EN" "http://www.w3.org/Graphics/SVG/1.1/DTD/svg11.dtd"><svg width="100%" height="100%" viewBox="0 0 51 51" version="1.1" xmlns="http://www.w3.org/2000/svg" xmlns:xlink="http://www.w3.org/1999/xlink" xml:space="preserve" style="fill-rule:evenodd;clip-rule:evenodd;stroke-linejoin:round;stroke-miterlimit:1.41421;"><rect id="ico_all" x="0.822" y="0.178" width="50" height="50" style="fill:none;"/><g><path d="M44.639,22.771c-1.326,0 -2.418,1.092 -2.418,2.418l0,15.11c0,1.326 -1.091,2.418 -2.417,2.418l-21.154,0c-1.096,-0.004 -2.059,-0.752 -2.333,-1.814l16.234,0c3.979,0 7.253,-3.274 7.253,-7.252l0,-15.11c0,-1.327 -1.091,-2.418 -2.418,-2.418c-1.326,0 -2.417,1.091 -2.417,2.418l0,15.11c0,1.326 -1.092,2.417 -2.418,2.417l-21.154,0c-1.326,0 -2.418,-1.091 -2.418,-2.417l0,-21.154c0,-1.327 1.092,-2.418 2.418,-2.418l15.11,0c1.326,0 2.418,-1.091 2.418,-2.418c0,-1.326 -1.092,-2.417 -2.418,-2.417l-15.11,0c-3.979,0 -7.253,3.274 -7.253,7.253l0,21.154c0,3.978 3.274,7.252 7.253,7.252l0.03,0c0.313,3.737 3.473,6.646 7.223,6.649l21.154,0c3.979,0 7.253,-3.274 7.253,-7.253l0,-15.11c0,-1.326 -1.092,-2.418 -2.418,-2.418Z" style="fill:#fff;fill-rule:nonzero;"/><path d="M15.102,16.764c-0.451,-0.44 -1.057,-0.686 -1.687,-0.686c-1.327,0 -2.418,1.091 -2.418,2.417c0,0.698 0.303,1.364 0.829,1.823l7.211,6.648c0.446,0.411 1.031,0.64 1.638,0.641l0.09,0c0.643,-0.03 1.248,-0.315 1.68,-0.792l15.576,-17.123c0.361,-0.434 0.56,-0.982 0.56,-1.547c0,-1.326 -1.092,-2.417 -2.418,-2.417c-0.649,0 -1.272,0.261 -1.726,0.725l-13.901,15.321l-5.434,-5.01Z" style="fill:#fff;fill-rule:nonzero;"/></g></svg>