<?xml version="1.0" encoding="UTF-8" standalone="no"?><!DOCTYPE svg PUBLIC "-//W3C//DTD SVG 1.1//EN" "http://www.w3.org/Graphics/SVG/1.1/DTD/svg11.dtd"><svg width="100%" height="100%" viewBox="0 0 51 51" version="1.1" xmlns="http://www.w3.org/2000/svg" xmlns:xlink="http://www.w3.org/1999/xlink" xml:space="preserve" style="fill-rule:evenodd;clip-rule:evenodd;stroke-linejoin:round;stroke-miterlimit:1.41421;"><rect id="ico_house2" x="0.977" y="0.625" width="50" height="50" style="fill:none;"/><path d="M4.181,26.178l2.655,0l0,22.571c0,0.733 0.594,1.328 1.328,1.328l34.519,0c0.734,0 1.328,-0.595 1.328,-1.328l0,-22.571l2.655,0c0.537,0 1.022,-0.323 1.227,-0.819c0.206,-0.496 0.092,-1.067 -0.288,-1.447l-21.243,-21.243c-0.518,-0.518 -1.359,-0.518 -1.877,0l-21.243,21.243c-0.379,0.38 -0.493,0.951 -0.288,1.447c0.205,0.496 0.69,0.819 1.227,0.819Zm30.536,21.243l-5.311,0l0,-13.277l5.311,0l0,13.277Zm6.639,0l-3.983,0l0,-14.604c0,-0.734 -0.595,-1.328 -1.328,-1.328l-7.966,0c-0.734,0 -1.328,0.594 -1.328,1.328l0,14.604l-17.26,0l0,-21.243l31.865,0l0,21.243Zm-15.933,-41.935l18.038,18.037l-36.075,0l18.037,-18.037Z" style="fill:#fff;fill-rule:nonzero;"/><path d="M14.802,42.111l7.966,0c0.734,0 1.328,-0.595 1.328,-1.328l0,-7.966c0,-0.734 -0.594,-1.328 -1.328,-1.328l-7.966,0c-0.733,0 -1.328,0.594 -1.328,1.328l0,7.966c0,0.733 0.595,1.328 1.328,1.328Zm1.328,-7.967l5.31,0l0,5.311l-5.31,0l0,-5.311Z" style="fill:#fff;fill-rule:nonzero;"/></svg>