<?xml version="1.0" encoding="UTF-8" standalone="no"?><!DOCTYPE svg PUBLIC "-//W3C//DTD SVG 1.1//EN" "http://www.w3.org/Graphics/SVG/1.1/DTD/svg11.dtd"><svg width="100%" height="100%" viewBox="0 0 51 51" version="1.1" xmlns="http://www.w3.org/2000/svg" xmlns:xlink="http://www.w3.org/1999/xlink" xml:space="preserve" style="fill-rule:evenodd;clip-rule:evenodd;stroke-linejoin:round;stroke-miterlimit:1.41421;"><rect id="ico_building" x="0.025" y="0.549" width="50" height="50" style="fill:none;"/><path d="M41.749,10.357c0,-2.44 0.488,-4.392 -1.952,-4.392c0,0 -30.241,0 -30.256,0c0,0 0,0 0,0c-2.44,0 -1.952,1.952 -1.952,4.392l0,33.916l-4.636,0l0,2.928l42.944,0l0,-2.928l-4.148,0l0,-33.916Zm-27.182,3.611c0,-1.464 1.171,-2.635 2.635,-2.635l3.075,0c1.464,0 2.635,1.171 2.635,2.635l0,3.074c0,1.464 -1.171,2.636 -2.635,2.636l-3.075,0c-1.464,0 -2.635,-1.172 -2.635,-2.636l0,-3.074l0,0Zm0.488,14.25l0,-3.075c0,-1.464 1.171,-2.635 2.635,-2.635l3.075,0c1.464,0 2.635,1.171 2.635,2.635l0,3.075c0,1.464 -1.171,2.635 -2.635,2.635l-3.075,0c-1.464,0 -2.635,-1.171 -2.635,-2.635Zm16.202,16.055l-13.176,0l0,-7.564c0,-0.83 0.634,-1.464 1.464,-1.464l10.248,0c0.829,0 1.464,0.634 1.464,1.464l0,7.564Zm2.83,-16.055c0,1.464 -1.171,2.635 -2.635,2.635l-3.123,0c-1.464,0 -2.636,-1.171 -2.636,-2.635l0,-3.075c0,-1.464 1.172,-2.635 2.636,-2.635l3.074,0c1.464,0 2.635,1.171 2.635,2.635l0,3.075l0.049,0Zm0.488,-11.127c0,1.464 -1.171,2.635 -2.635,2.635l-3.123,0c-1.464,0 -2.636,-1.171 -2.636,-2.635l0,-3.074c0,-1.464 1.172,-2.635 2.636,-2.635l3.074,0c1.464,0 2.635,1.171 2.635,2.635l0,3.074l0.049,0Z" style="fill:#fff;fill-rule:nonzero;"/></svg>