<?xml version="1.0" encoding="UTF-8" standalone="no"?><!DOCTYPE svg PUBLIC "-//W3C//DTD SVG 1.1//EN" "http://www.w3.org/Graphics/SVG/1.1/DTD/svg11.dtd"><svg width="100%" height="100%" viewBox="0 0 51 51" version="1.1" xmlns="http://www.w3.org/2000/svg" xmlns:xlink="http://www.w3.org/1999/xlink" xml:space="preserve" style="fill-rule:evenodd;clip-rule:evenodd;stroke-linejoin:round;stroke-miterlimit:1.41421;"><rect id="ico_building2" x="0.65" y="0.549" width="50" height="50" style="fill:none;"/><g><path d="M22.251,7.101l-9.223,0l0,9.273l9.274,0l0,-9.273l-0.051,0Zm-2.016,7.257l-5.191,0l0,-5.241l5.242,0l0,5.241l-0.051,0Z" style="fill:#fff;fill-rule:nonzero;"/><path d="M36.767,7.101l-9.274,0l0,9.273l9.274,0l0,-9.273Zm-2.016,7.257l-5.242,0l0,-5.241l5.242,0l0,5.241Z" style="fill:#fff;fill-rule:nonzero;"/><path d="M22.251,17.08l-9.223,0l0,9.274l9.274,0l0,-9.274l-0.051,0Zm-2.016,7.258l-5.191,0l0,-5.242l5.242,0l0,5.242l-0.051,0Z" style="fill:#fff;fill-rule:nonzero;"/><path d="M36.767,17.08l-9.274,0l0,9.274l9.274,0l0,-9.274Zm-2.016,7.258l-5.242,0l0,-5.242l5.242,0l0,5.242Z" style="fill:#fff;fill-rule:nonzero;"/><path d="M22.251,27.059l-9.223,0l0,9.274l9.274,0l0,-9.274l-0.051,0Zm-2.016,7.207l-5.191,0l0,-5.191l5.242,0l0,5.191l-0.051,0Z" style="fill:#fff;fill-rule:nonzero;"/><path d="M36.767,27.059l-9.274,0l0,9.274l9.274,0l0,-9.274Zm-2.016,7.207l-5.242,0l0,-5.191l5.242,0l0,5.191Z" style="fill:#fff;fill-rule:nonzero;"/><path d="M7.535,2.514l0,46.52l14.263,0l0,-8.165l6.149,0l0,8.165l14.263,0l0,-46.52l-34.675,0Zm32.659,44.453l-10.231,0l0,-8.114l-10.181,0l0,8.165l-10.231,0l0,-42.488l30.592,0l0,42.437l0.051,0Z" style="fill:#fff;fill-rule:nonzero;"/></g></svg>