<?xml version="1.0" encoding="UTF-8" standalone="no"?><!DOCTYPE svg PUBLIC "-//W3C//DTD SVG 1.1//EN" "http://www.w3.org/Graphics/SVG/1.1/DTD/svg11.dtd"><svg width="100%" height="100%" viewBox="0 0 51 51" version="1.1" xmlns="http://www.w3.org/2000/svg" xmlns:xlink="http://www.w3.org/1999/xlink" xml:space="preserve" style="fill-rule:evenodd;clip-rule:evenodd;stroke-linejoin:round;stroke-miterlimit:1.41421;"><rect id="ico_lifestyle" x="0.846" y="0.993" width="50" height="50" style="fill:none;"/><clipPath id="_clip1"><rect x="0.846" y="0.993" width="50" height="50"/></clipPath><g clip-path="url(#_clip1)"><clipPath id="_clip2"><rect id="noun_10148" x="0.846" y="1.549" width="49.445" height="49.445"/></clipPath><g clip-path="url(#_clip2)"><g><g><circle cx="25.35" cy="25.235" r="5.458" style="fill:#fff;"/><path d="M43.219,31.289l-0.211,-0.098c-1.044,-0.486 -2.287,-0.032 -2.772,1.013l-3.053,6.563l-3.61,-6.348c-0.57,-1.002 -1.845,-1.352 -2.848,-0.782l-0.201,0.114c-0.051,0.028 -0.098,0.06 -0.145,0.094c-0.041,-0.003 -0.083,-0.008 -0.125,-0.008l-9.81,0c-0.879,0 -1.63,0.545 -1.938,1.315c-0.561,0.12 -1.073,0.467 -1.379,1.006l-3.611,6.347l-3.052,-6.562c-0.487,-1.045 -1.729,-1.498 -2.773,-1.013l-0.211,0.099c-1.045,0.484 -1.498,1.728 -1.013,2.774l4.874,10.476c0.445,0.959 1.524,1.415 2.505,1.114c0.569,-0.117 1.088,-0.466 1.397,-1.011l3.114,-5.473l0,7.009c0,1.152 0.934,2.087 2.087,2.087l9.81,0c1.153,0 2.089,-0.935 2.089,-2.087l0,-8.748l3.112,5.473c0.309,0.546 0.83,0.896 1.397,1.012c0.982,0.303 2.061,-0.156 2.506,-1.113l4.872,-10.478c0.489,-1.047 0.035,-2.288 -1.011,-2.775Z" style="fill:#fff;"/></g><g><path d="M28.985,8.729c-0.059,0.814 -0.436,1.52 -1.144,1.248c-0.11,-0.348 0.022,-0.711 -0.015,-1c-0.21,-1.673 -2.747,-1.985 -3.005,0.216c-2.096,-0.688 -4.191,-1.378 -6.286,-2.066c0.84,-2.44 -2.516,-3.573 -2.967,-0.977c-0.778,-0.235 -1.177,-0.698 -0.796,-1.625c0.746,-0.622 1.425,-1.092 2.52,-1.06c0.342,0.012 0.729,0.19 1.143,0.167c0.328,-0.019 0.644,-0.305 0.968,-0.415c0.955,-0.327 2.109,-0.537 3.393,-0.248c3.416,0.773 4.76,3.387 6.189,5.76Zm-8.924,-5.137c-0.061,0.225 -0.122,0.448 -0.182,0.674c1.227,0.437 2.363,0.688 3.593,1.129c0.142,-0.529 0.285,-1.061 0.428,-1.59c-1.451,-0.705 -2.859,-0.715 -3.839,-0.213Zm3.977,1.99c0.757,0.248 1.513,0.497 2.27,0.746c-0.212,-1.004 -0.968,-1.685 -1.91,-2.254c-0.183,0.54 -0.199,0.982 -0.36,1.508Z" style="fill:#fff;"/><path d="M17.232,4.917c0.884,0.084 1.384,0.812 1.172,1.643c-0.426,1.673 -2.819,0.847 -2.414,-0.742c0.147,-0.582 0.57,-0.969 1.242,-0.901Z" style="fill:#fff;"/><path d="M26.398,7.931c0.932,0.068 1.486,0.888 1.12,1.835c-0.63,1.632 -3.149,0.285 -2.157,-1.339c0.146,-0.241 0.514,-0.536 1.037,-0.496Z" style="fill:#fff;"/></g><g><path d="M43.588,21.45c0,0 0.04,0.261 0.233,0.773c0.51,-0.461 1.104,-0.842 1.766,-1.087c0.021,-0.006 0.039,-0.014 0.059,-0.021c-0.017,-1.984 -0.686,-4.24 -0.539,-4.909c0,0 -0.502,0.635 -2.205,2.866c-1.075,1.409 -1.062,3.621 -0.33,4.693c0.241,-0.414 0.537,-0.813 0.881,-1.178c-0.016,-0.88 0.135,-1.137 0.135,-1.137Z" style="fill:#fff;fill-rule:nonzero;"/><path d="M49.999,19.85c0,0 -0.97,0.337 -4.309,1.567c-2.881,1.061 -4.61,5.105 -2.819,6.197c1.18,-2.808 3.199,-4.519 3.199,-4.519c0,0 -1.709,2.344 -1.829,4.779c3.279,-0.314 4.777,-7.042 5.758,-8.024Z" style="fill:#fff;fill-rule:nonzero;"/></g><path d="M38.827,4.798c1.389,0.071 2.7,0.253 4.079,0.336c-0.008,0.772 -0.048,1.523 -0.052,2.296c-0.66,-0.013 -1.254,-0.121 -1.893,-0.163c0.383,2.069 0.784,4.113 1.198,6.138c-1.891,0.359 -3.783,0.718 -5.673,1.078c-0.45,-1.972 -0.791,-4.105 -1.197,-6.14c-0.524,0.202 -1.093,0.61 -1.664,0.87c-0.29,-0.754 -0.631,-1.437 -0.935,-2.172c1.213,-0.574 2.485,-1.253 3.647,-1.771c0.396,0.264 0.702,0.669 1.233,0.649c0.763,-0.032 0.993,-0.71 1.257,-1.121Z" style="fill:#fff;"/><path d="M4.402,23.068c0,0 -4.358,0.031 -3.425,3.256l1.446,4.993l9.643,-3.396l-1.266,-4.374l-6.398,-0.479Zm-3.02,1.979c0.169,0.163 0.441,0.23 0.713,0.151c0.381,-0.111 0.615,-0.465 0.52,-0.792c-0.059,-0.206 -0.235,-0.351 -0.451,-0.404c0.34,-0.213 0.816,-0.406 1.481,-0.554c0.138,-0.03 0.604,0.007 1.074,0.055c-0.323,0.134 -0.533,0.311 -0.496,0.438c0.045,0.157 0.455,0.176 0.916,0.044c0.309,-0.09 0.561,-0.224 0.68,-0.352c0.032,0.005 0.051,0.007 0.051,0.007l1.852,0.228l-0.512,0.176l-1.731,0.595l-3.985,1.167c0,0 -0.18,-0.331 -0.112,-0.759Zm2.582,4.469c-0.306,0.088 -0.622,-0.072 -0.704,-0.357c-0.084,-0.288 0.098,-0.592 0.403,-0.68c0.305,-0.089 0.621,0.072 0.703,0.358c0.083,0.288 -0.097,0.592 -0.402,0.679Zm0.249,-2.114c-0.524,0.152 -1.058,-0.096 -1.191,-0.555c-0.133,-0.458 0.185,-0.953 0.711,-1.105c0.525,-0.153 1.059,0.096 1.192,0.553c0.132,0.46 -0.186,0.955 -0.712,1.107Zm1.133,-0.553c-0.088,-0.307 0.127,-0.636 0.48,-0.738c0.353,-0.104 0.712,0.061 0.801,0.367c0.088,0.306 -0.127,0.638 -0.481,0.74c-0.354,0.1 -0.712,-0.063 -0.8,-0.369Zm2.621,1.996c-0.535,0.154 -1.079,-0.098 -1.214,-0.567c-0.135,-0.467 0.189,-0.972 0.724,-1.127c0.534,-0.154 1.078,0.098 1.213,0.567c0.136,0.468 -0.189,0.974 -0.723,1.127Zm-0.599,-3.687c-0.415,0.119 -0.814,0.082 -1.05,-0.072l1.859,-0.471c-0.143,0.227 -0.437,0.436 -0.809,0.543Zm2.396,1.929c-0.343,0.099 -0.694,-0.067 -0.783,-0.372c-0.088,-0.306 0.118,-0.633 0.462,-0.734c0.345,-0.098 0.694,0.068 0.783,0.374c0.089,0.306 -0.119,0.635 -0.462,0.732Z" style="fill:#fff;"/><g><path d="M7.078,13.478c0.34,-1.153 0.178,-2.343 -0.358,-3.333c-0.99,0.511 -1.79,1.385 -2.189,2.511l2.547,0.822Z" style="fill:#fff;"/><path d="M8.949,14.085l1.404,0.453c0.421,-1.197 1.291,-2.117 2.359,-2.635c-0.522,-0.904 -1.356,-1.63 -2.411,-2.002l-1.352,4.184Z" style="fill:#fff;"/><path d="M8.715,14.008l1.353,-4.183c-1.074,-0.316 -2.175,-0.214 -3.126,0.213c0.563,1.044 0.729,2.299 0.37,3.516l1.403,0.454Z" style="fill:#fff;"/><path d="M10.587,14.613l2.546,0.823c0.337,-1.145 0.198,-2.324 -0.305,-3.317c-1.013,0.487 -1.84,1.359 -2.241,2.494Z" style="fill:#fff;"/><path d="M10.51,14.846c-0.338,1.155 -0.178,2.347 0.359,3.334c0.99,-0.511 1.793,-1.385 2.189,-2.51l-2.548,-0.824Z" style="fill:#fff;"/><path d="M10.278,14.772l-1.404,-0.454l-1.351,4.183c1.072,0.316 2.175,0.214 3.125,-0.213c-0.562,-1.044 -0.729,-2.299 -0.37,-3.516Z" style="fill:#fff;"/><path d="M4.456,12.89c-0.337,1.145 -0.198,2.323 0.306,3.316c1.014,-0.488 1.84,-1.359 2.241,-2.494l-2.547,-0.822Z" style="fill:#fff;"/><path d="M8.64,14.242l-1.403,-0.454c-0.422,1.197 -1.291,2.119 -2.358,2.635c0.52,0.904 1.354,1.63 2.41,2.004l1.351,-4.185Z" style="fill:#fff;"/></g></g></g></g></svg>